<?xml version="1.0" encoding="UTF-8"?><svg id="Livello_1" xmlns="http://www.w3.org/2000/svg" viewBox="0 0 564.62 188.45"><defs><style>.cls-1{fill:#bd2918;}</style></defs><path class="cls-1" d="M536.58,25.6c-.98-.42-1.83-1-2.55-1.73-.72-.73-1.29-1.58-1.71-2.56-.42-.98-.62-2.02-.62-3.12s.21-2.14,.62-3.12c.42-.98,.99-1.84,1.72-2.58,.73-.74,1.59-1.32,2.58-1.75,.99-.43,2.05-.65,3.18-.65s2.19,.21,3.17,.64,1.83,1,2.55,1.73,1.29,1.58,1.71,2.56c.42,.98,.62,2.02,.62,3.12s-.21,2.14-.62,3.12c-.42,.98-.99,1.84-1.72,2.58-.73,.74-1.59,1.32-2.58,1.75-.99,.43-2.05,.65-3.18,.65s-2.19-.21-3.17-.64Zm6.03-.75c.88-.39,1.65-.91,2.3-1.56,.65-.65,1.16-1.42,1.53-2.31,.37-.88,.56-1.83,.56-2.84s-.18-1.94-.55-2.82c-.36-.88-.87-1.65-1.52-2.31-.65-.65-1.41-1.17-2.29-1.55-.88-.38-1.83-.57-2.85-.57s-1.98,.19-2.87,.58-1.65,.91-2.3,1.56c-.65,.65-1.15,1.43-1.52,2.32-.36,.89-.55,1.84-.55,2.83s.18,1.96,.55,2.83c.36,.88,.87,1.64,1.5,2.3,.64,.66,1.4,1.17,2.28,1.55,.88,.38,1.83,.57,2.85,.57s1.98-.19,2.87-.58Zm-6.1-11.15h3.77c.98,0,1.77,.24,2.36,.71,.6,.48,.89,1.14,.89,1.98,0,.7-.18,1.26-.55,1.68-.36,.42-.83,.72-1.42,.88l2.3,3.19h-1.92l-2.07-2.92h-1.74v2.92h-1.63V13.7Zm3.7,4.13c.52,0,.93-.12,1.24-.36,.3-.24,.46-.57,.46-.98s-.15-.76-.46-.99c-.3-.23-.72-.35-1.24-.35h-2.07v2.68h2.07Z"/><path class="cls-1" d="M504.71,123.84c-7.36,15.55-20.79,23.56-36.13,23.56-23.26,0-42.12-18.08-42.12-53.61s18.86-53.61,42.12-53.61c15.22,0,28.56,10.67,35.96,26.09l33.66-16.44c-14.37-26.08-40.84-44.23-71.11-44.23-31.79,0-59.39,16.82-73.18,45.31-6.22-33.52-33.86-42.06-67.01-42.06h-117.21l-25.72,121.39L153.51,8.85h-37.47l-30.45,121.4L59.87,8.85H16.78L61.85,178.99h40.57l32.66-124.73,32.66,124.73h39.96L246.88,31.11V178.99h43.57v-55.3h36.44c24.34,0,45.69-7.81,57.79-23.72,2.59,49.98,38.47,82.88,82.41,82.88,30.35,0,56.88-16.45,71.23-42.63l-33.61-16.38Zm-177.82-31.48h-36.44V40.17h36.44c14.14,0,25.6,7.28,25.6,26.09s-11.46,26.09-25.6,26.09Z"/></svg>